<?xml version="1.0" encoding="iso-8859-1"?>
<!-- Generator: Adobe Illustrator 19.0.0, SVG Export Plug-In . SVG Version: 6.00 Build 0)  -->
<svg version="1.1" id="Warstwa_1" xmlns="http://www.w3.org/2000/svg" xmlns:xlink="http://www.w3.org/1999/xlink" x="0px" y="0px"
	 viewBox="0 0 110 40" style="enable-background:new 0 0 110 40;" xml:space="preserve">
<path id="XMLID_9_" style="fill:none;stroke:#231F20;stroke-width:0.2446;stroke-miterlimit:10;" d="M107.901,5.246l-0.212-0.001
	V3.59c-0.884,0-1.599-0.703-1.599-1.565h-1.406h-0.991h-1.406c-0.002,0.812-0.637,1.467-1.447,1.546V2.065
	c-0.884,0-1.599-0.701-1.599-1.564h-0.477V0.5L10.632,0.501c0,0.862-0.716,1.565-1.601,1.564v1.509
	C8.22,3.496,7.586,2.837,7.586,2.025H6.005H5.19H3.608C3.605,2.888,2.891,3.584,2.009,3.586v1.661H1.973
	c0,0.862-0.587,1.564-1.472,1.564l0,8.516h0v10.153v5.69v2.022c0.884-0.002,1.599,0.7,1.599,1.564l0.212,0.001v1.654
	c0.884,0,1.599,0.703,1.599,1.565h1.406h0.991h1.406c0.002-0.812,0.637-1.467,1.447-1.546v1.506c0.884,0,1.599,0.701,1.599,1.564
	h0.477V39.5l88.131-0.001c0-0.862,0.716-1.565,1.601-1.564v-1.509c0.811,0.078,1.445,0.737,1.445,1.549h1.581h0.816h1.581
	c0.003-0.862,0.717-1.559,1.599-1.561v-1.661h0.036c0-0.862,0.587-1.564,1.472-1.564l0-8.516h0V14.521v-5.69V6.809
	C108.616,6.811,107.901,6.109,107.901,5.246z M104.427,4.445c0.603,0.192,1.048,0.725,1.098,1.367l-0.035,0.001h-2.16
	C103.378,5.17,103.824,4.638,104.427,4.445z M5.355,4.42c0.645,0.169,1.132,0.72,1.183,1.393H4.254H4.168
	C4.221,5.14,4.706,4.589,5.355,4.42z M5.573,35.555c-0.603-0.192-1.048-0.725-1.098-1.367l0.035-0.001h2.16
	C6.622,34.83,6.176,35.362,5.573,35.555z M104.645,35.58c-0.645-0.169-1.132-0.72-1.183-1.393h2.285h0.086
	C105.779,34.86,105.294,35.411,104.645,35.58z"/>
</svg>
