<?xml version="1.0" encoding="iso-8859-1"?>
<!-- Generator: Adobe Illustrator 19.0.0, SVG Export Plug-In . SVG Version: 6.00 Build 0)  -->
<svg version="1.1" id="Warstwa_1" xmlns="http://www.w3.org/2000/svg" xmlns:xlink="http://www.w3.org/1999/xlink" x="0px" y="0px"
	 viewBox="0 0 400 17" style="enable-background:new 0 0 400 17;" xml:space="preserve">
<path id="XMLID_16_" style="fill:#FFFFFF;stroke:#231F20;stroke-width:0.2498;stroke-miterlimit:10;" d="M399.75,17v-2.499V8.616
	V6.525c-0.892,0.002-1.614-0.724-1.614-1.617l-0.214-0.002v-1.71c-0.892,0-1.614-0.727-1.614-1.619h-1.419h-1h-1.419
	c-0.002,0.84-0.643,1.518-1.46,1.599V1.619c-0.892,0-1.614-0.725-1.614-1.617h-0.482V0L10.475,0.002
	c0,0.892-0.722,1.619-1.616,1.617v1.56C8.041,3.098,7.401,2.417,7.401,1.577H5.806H4.983H3.387C3.384,2.469,2.663,3.19,1.773,3.191
	V4.91H1.736c0,0.892-0.593,1.617-1.486,1.617L0.25,17h0h0 M394.63,4.08c0.608,0.199,1.058,0.75,1.108,1.414l-0.035,0.002h-2.18
	C393.572,4.83,394.022,4.279,394.63,4.08z M5.15,4.054c0.651,0.174,1.142,0.745,1.194,1.441H4.039H3.951
	C4.005,4.799,4.494,4.229,5.15,4.054z"/>
</svg>
