<?xml version="1.0" encoding="iso-8859-1"?>
<!-- Generator: Adobe Illustrator 19.0.0, SVG Export Plug-In . SVG Version: 6.00 Build 0)  -->
<svg version="1.1" id="Warstwa_1" xmlns="http://www.w3.org/2000/svg" xmlns:xlink="http://www.w3.org/1999/xlink" x="0px" y="0px"
	 viewBox="143 48.39 400 17" style="enable-background:new 143 48.39 400 17;" xml:space="preserve">
<path style="fill:#FFFFFF;stroke:#231F20;stroke-width:0.2498;stroke-miterlimit:10;" d="M542.75,65.39v-2.499v-5.885v-2.091
	c-0.892,0.002-1.614-0.724-1.614-1.617l-0.214-0.002v-1.71c-0.892,0-1.614-0.727-1.614-1.619h-1.419h-1h-1.419
	c-0.002,0.84-0.643,1.518-1.46,1.599v-1.557c-0.892,0-1.614-0.725-1.614-1.617h-0.482V48.39l-106.081,0.001 M260.167,48.391
	l-106.692,0.001c0,0.892-0.722,1.619-1.616,1.617v1.56c-0.818-0.081-1.458-0.762-1.458-1.602h-1.595h-0.823h-1.596
	c-0.003,0.892-0.724,1.613-1.614,1.614V53.3h-0.037c0,0.892-0.593,1.617-1.486,1.617V65.39 M147.039,53.885h-0.088
	c0.054-0.696,0.543-1.266,1.199-1.441c0.651,0.174,1.142,0.745,1.194,1.441H147.039z M538.703,53.886h-2.18
	c0.049-0.666,0.499-1.217,1.107-1.416c0.608,0.199,1.058,0.75,1.108,1.414L538.703,53.886z"/>
</svg>
