<?xml version="1.0" encoding="iso-8859-1"?>
<!-- Generator: Adobe Illustrator 19.0.0, SVG Export Plug-In . SVG Version: 6.00 Build 0)  -->
<svg version="1.1" id="Warstwa_1" xmlns="http://www.w3.org/2000/svg" xmlns:xlink="http://www.w3.org/1999/xlink" x="0px" y="0px"
	 viewBox="0 0 113.39 113.39" style="enable-background:new 0 0 113.39 113.39;" xml:space="preserve">
<path id="XMLID_4_" style="fill:none;stroke:#231F20;stroke-width:0.25;stroke-miterlimit:10;" d="M91.768,23.629
	c2.63-5.628,3.383-10.835,1.736-11.73c0,0,1.197,5.447-13.643,3.975l3.045-6.534l1.819-0.661l1.433-8.534l-5.616,6.579l0.664,1.819
	l-3.276,7.017l-14.165-2.405l11.937,7.185l-7.255,15.56c-2.643-1.727-5.803-2.86-9.44-3.268c-1.321-1.893-2.269-8.498-2.269-12.298
	c0,3.889-1.007,10.536-2.382,12.432c-3.718,0.592-6.806,1.707-9.354,3.253l-7.31-15.679l11.937-7.185l-14.164,2.405l-3.276-7.017
	l0.664-1.819l-5.616-6.581L28.67,8.68l1.813,0.661l3.051,6.534C18.694,17.347,19.891,11.9,19.891,11.9
	c-1.659,0.895-0.889,6.102,1.729,11.73c2.619,5.628,11.772,16.902,13.519,16.212c0,0-7.749-11.576,1.066-18.232l7.218,15.478
	c-5.37,4.043-7.775,10.42-7.775,18.396l-4.97,4.721c0,0,2.968,9.404,2.595,13.771l-2.18,16.643l9.33-9.227l-0.545-6.804
	c0,0,6.674-1.539,10.651-0.258l-15.224,32.654l-3.714,3.193l1.825,3.069l3.524-0.574L37,107.781l15.201-32.593
	c0.256,0.206,0.482,0.436,0.663,0.701l1.967,8.694c-1.919,1.208-2.227,2.882-2.227,2.882l4.158,5.589l4.159-5.589
	c0,0-0.308-1.665-2.222-2.868l1.949-8.752c0.161-0.231,0.35-0.438,0.556-0.627l15.185,32.564l0.059,4.891l3.525,0.574l1.83-3.069
	l-3.714-3.193L62.823,74.242c4.14-1.613,11.249,0.311,11.249,0.311l-1.013,6.839l9.331,9.227l-2.192-16.643h-0.083
	c-0.367-4.367,2.601-13.771,2.601-13.771l-4.97-4.721c0-7.901-2.742-14.397-7.749-18.453l7.192-15.421
	c8.815,6.656,1.06,18.232,1.06,18.232C80.003,40.531,89.155,29.258,91.768,23.629z"/>
</svg>
